<?xml version="1.0" encoding="utf-8"?>
<!-- Generator: Adobe Illustrator 18.0.0, SVG Export Plug-In . SVG Version: 6.00 Build 0)  -->
<!DOCTYPE svg PUBLIC "-//W3C//DTD SVG 1.1//EN" "http://www.w3.org/Graphics/SVG/1.1/DTD/svg11.dtd">
<svg version="1.1" id="Calque_1" xmlns="http://www.w3.org/2000/svg" xmlns:xlink="http://www.w3.org/1999/xlink" x="0px" y="0px"
	 viewBox="0 0 64 64" enable-background="new 0 0 64 64" xml:space="preserve">
<path fill="#FFFFFF" d="M59.6,4.7l-0.3-0.3c-5.9-5.9-15.5-5.9-21.4,0L24.3,18c-5.9,5.9-5.9,15.5,0,21.4l0.3,0.3
	c0.5,0.5,1,0.9,1.5,1.3l5-5c-0.6-0.3-1.1-0.8-1.6-1.3l-0.3-0.3c-3.2-3.2-3.2-8.4,0-11.6L42.8,9.3c3.2-3.2,8.4-3.2,11.6,0l0.3,0.3
	c3.2,3.2,3.2,8.4,0,11.6l-6.2,6.2c1.1,2.6,1.6,5.5,1.5,8.3l9.5-9.5C65.5,20.2,65.5,10.5,59.6,4.7z M39.4,24.3
	c-0.5-0.5-1-0.9-1.5-1.3l-5,5c0.6,0.3,1.1,0.8,1.6,1.3l0.3,0.3c3.2,3.2,3.2,8.4,0,11.6L21.2,54.7c-3.2,3.2-8.4,3.2-11.6,0l-0.3-0.3
	c-3.2-3.2-3.2-8.4,0-11.6l6.2-6.2c-1.1-2.6-1.6-5.5-1.5-8.3l-9.5,9.5c-5.9,5.9-5.9,15.5,0,21.4l0.3,0.3c5.9,5.9,15.5,5.9,21.4,0
	L39.7,46c5.9-5.9,5.9-15.5,0-21.4L39.4,24.3z"/>
</svg>
