<?xml version="1.0" encoding="utf-8"?>
<!-- Generator: Adobe Illustrator 18.0.0, SVG Export Plug-In . SVG Version: 6.00 Build 0)  -->
<!DOCTYPE svg PUBLIC "-//W3C//DTD SVG 1.1//EN" "http://www.w3.org/Graphics/SVG/1.1/DTD/svg11.dtd">
<svg version="1.1" id="Layer_1" xmlns="http://www.w3.org/2000/svg" xmlns:xlink="http://www.w3.org/1999/xlink" x="0px" y="0px"
	 viewBox="0 0 64 64" enable-background="new 0 0 64 64" xml:space="preserve">
<path fill="#FFFFFF" d="M64,33.7v-5.1c0-2.5-0.7-3.4-3.4-3.4H38.7V3.4c0-2.5-0.8-3.4-3.4-3.4h-5.1c-2.6,0-3.4,0.9-3.4,3.4v21.9H3.4
	c-2.5,0-3.4,0.8-3.4,3.4v5.1c0,2.6,0.9,3.4,3.4,3.4h23.6v23.6c0,2.5,0.8,3.4,3.4,3.4h5.1c2.5,0,3.4-0.7,3.4-3.4V37.1h21.9
	C63.2,37.1,64,36.2,64,33.7z"/>
</svg>
