<?xml version="1.0" encoding="utf-8"?>
<!-- Generator: Adobe Illustrator 18.0.0, SVG Export Plug-In . SVG Version: 6.00 Build 0)  -->
<!DOCTYPE svg PUBLIC "-//W3C//DTD SVG 1.1//EN" "http://www.w3.org/Graphics/SVG/1.1/DTD/svg11.dtd">
<svg version="1.1" id="Calque_1" xmlns="http://www.w3.org/2000/svg" xmlns:xlink="http://www.w3.org/1999/xlink" x="0px" y="0px"
	 viewBox="0 0 64.1 64.1" enable-background="new 0 0 64.1 64.1" xml:space="preserve">
<polygon fill="#FFFFFF" points="16.9,0 37.1,6.2 33.9,32.5 "/>
<polygon fill="#FFFFFF" points="36,26.7 37.9,11.1 53.2,8.6 "/>
<polygon fill="#FFFFFF" points="47.6,16.8 34.1,30.7 59.8,17.4 "/>
<polygon fill="#FFFFFF" points="64.1,17.1 31.8,33.7 58.2,36.9 "/>
<polygon fill="#FFFFFF" points="55.7,53 37.5,35.8 53.3,37.8 "/>
<polygon fill="#FFFFFF" points="47.2,60.1 33.5,33.9 47.4,47.5 "/>
<polygon fill="#FFFFFF" points="47.4,64.1 27.1,58 30.3,31.4 "/>
<polygon fill="#FFFFFF" points="10.7,56.2 27.9,38.1 26,53.8 "/>
<polygon fill="#FFFFFF" points="5,46.5 30,33.5 17.2,47 "/>
<polygon fill="#FFFFFF" points="0,47.2 32.7,30.2 6.5,26.9 "/>
<polygon fill="#FFFFFF" points="8.5,10.7 11,25.9 26.7,27.9 "/>
<polygon fill="#FFFFFF" points="17.6,4.7 17.2,16.8 30.9,30 "/>
</svg>
